<?xml version="1.0" standalone="no"?>
<!DOCTYPE svg PUBLIC "-//W3C//DTD SVG 20010904//EN"
 "http://www.w3.org/TR/2001/REC-SVG-20010904/DTD/svg10.dtd">
<svg version="1.0" xmlns="http://www.w3.org/2000/svg"
 width="679.000000pt" height="565.000000pt" viewBox="0 0 679.000000 565.000000"
 preserveAspectRatio="xMidYMid meet">

<g transform="translate(0.000000,565.000000) scale(0.100000,-0.100000)"
fill="#16836E" stroke="none">
<path d="M3478 5510 c-196 -42 -293 -88 -718 -335 -140 -82 -361 -209 -490
-283 -329 -188 -328 -187 -340 -230 -5 -21 -26 -129 -45 -242 -34 -194 -119
-649 -130 -697 -4 -16 -1 -23 9 -23 9 0 89 43 178 96 143 85 346 204 668 391
52 31 154 90 225 132 72 43 180 106 240 141 61 35 181 106 269 158 187 113
258 143 346 150 55 4 77 0 141 -25 42 -16 94 -44 117 -63 50 -40 115 -131 132
-185 7 -22 16 -44 21 -49 4 -5 71 29 151 76 136 81 348 204 451 262 27 15 51
33 53 41 6 14 -40 110 -78 167 -133 194 -297 338 -490 427 -107 50 -155 66
-277 91 -129 26 -311 26 -433 0z"/>
<path d="M5575 4973 c-33 -20 -76 -45 -96 -57 -19 -11 -123 -71 -230 -133
-288 -165 -716 -413 -954 -552 -115 -68 -260 -152 -321 -187 -61 -36 -135 -71
-165 -79 -152 -41 -306 5 -410 124 -43 48 -89 129 -89 156 0 25 -22 18 -101
-32 -113 -70 -112 -70 -303 -185 -99 -59 -182 -108 -184 -108 -19 0 -72 -48
-72 -65 0 -26 73 -158 130 -236 89 -122 254 -260 399 -333 291 -148 637 -159
945 -32 93 38 284 143 556 306 96 57 207 122 380 222 52 31 151 88 218 128 68
40 132 75 143 77 27 8 45 67 84 288 46 258 91 495 116 617 12 54 19 102 17
107 -1 5 -30 -7 -63 -26z"/>
<path d="M4403 2890 c-15 -6 -24 -21 -28 -47 -14 -78 -76 -387 -135 -668 -71
-340 -110 -535 -110 -552 0 -10 33 -13 134 -13 l134 0 7 33 c3 17 14 73 25
122 11 50 31 153 45 230 30 159 138 688 160 782 22 90 20 113 -7 113 -13 1
-63 3 -113 5 -49 3 -100 0 -112 -5z"/>
<path d="M455 2495 c-135 -30 -285 -127 -331 -217 -100 -194 -85 -433 36 -571
64 -73 232 -126 355 -112 130 15 176 27 184 49 12 32 33 177 27 183 -3 3 -25
0 -50 -6 -102 -25 -210 -8 -264 42 -72 67 -89 194 -41 298 48 102 136 146 273
136 45 -3 95 -11 111 -17 35 -13 45 -4 74 75 36 95 35 97 -44 123 -90 31 -232
38 -330 17z"/>
<path d="M1338 2500 c-182 -33 -305 -114 -376 -249 -79 -147 -83 -371 -9 -488
27 -42 101 -114 138 -133 75 -41 285 -54 407 -25 169 40 306 169 348 329 21
80 18 264 -6 327 -41 110 -120 183 -239 219 -72 23 -197 32 -263 20z m124
-180 c55 -16 94 -54 117 -116 26 -69 26 -114 0 -200 -54 -177 -153 -258 -277
-225 -75 21 -122 107 -122 223 0 94 31 185 83 244 44 50 67 65 117 75 19 4 37
7 40 8 3 0 22 -4 42 -9z"/>
<path d="M3450 2497 c-91 -21 -114 -36 -122 -82 -4 -22 -7 -59 -7 -82 l-1 -41
56 19 c71 25 236 37 286 20 66 -22 101 -88 84 -157 l-7 -27 -73 7 c-40 4 -116
2 -170 -4 -247 -28 -371 -116 -383 -273 -11 -126 29 -209 123 -257 42 -21 62
-25 145 -25 89 0 100 2 160 33 35 19 74 46 86 60 30 37 58 21 58 -34 l0 -39
99 -3 c55 -1 103 1 108 6 5 5 20 71 33 148 13 76 33 187 44 246 58 308 31 391
-148 464 -57 23 -83 27 -191 30 -78 2 -146 -1 -180 -9z m234 -477 c32 -12 33
-31 5 -105 -28 -75 -79 -126 -150 -150 -66 -21 -96 -16 -142 24 -28 26 -32 36
-32 79 0 92 57 137 192 151 43 5 83 9 90 10 6 0 23 -3 37 -9z"/>
<path d="M5063 2491 c-128 -35 -190 -78 -256 -179 -53 -81 -81 -151 -98 -253
-11 -66 -10 -88 3 -158 50 -250 193 -338 505 -312 137 12 198 25 210 44 9 13
31 176 25 182 -2 2 -29 -5 -59 -16 -31 -10 -96 -24 -145 -30 -112 -15 -183 -2
-233 42 -37 33 -69 103 -63 140 l3 24 280 1 c154 1 292 2 306 3 34 1 40 24 40
151 0 179 -57 288 -183 345 -84 39 -226 45 -335 16z m210 -155 c18 -7 43 -26
57 -41 21 -23 25 -36 25 -93 l0 -67 -178 -3 c-149 -2 -178 0 -183 12 -7 17 33
109 63 145 42 51 151 75 216 47z"/>
<path d="M6333 2501 c-60 -15 -118 -52 -164 -103 -59 -66 -74 -60 -65 29 l7
64 -118 -3 -118 -3 -12 -50 c-7 -27 -28 -133 -48 -234 -19 -101 -48 -245 -65
-320 -44 -202 -130 -622 -130 -632 0 -6 58 -8 138 -7 l137 3 11 50 c7 28 24
113 38 190 29 156 51 244 63 256 11 11 24 1 53 -44 14 -21 47 -52 75 -70 48
-31 53 -32 160 -32 103 0 114 2 177 32 182 86 286 308 258 553 -23 205 -127
318 -300 326 -36 2 -79 -1 -97 -5z m37 -221 c63 -34 93 -120 79 -229 -13 -110
-67 -195 -151 -237 -91 -46 -175 -19 -218 72 -19 39 -22 58 -18 133 7 141 59
226 164 266 39 14 113 12 144 -5z"/>
<path d="M2567 2476 c-32 -13 -83 -45 -113 -70 -31 -25 -60 -46 -64 -46 -15 0
-20 33 -14 82 l7 49 -119 -3 -119 -3 -8 -35 c-4 -19 -27 -137 -52 -262 -25
-124 -59 -286 -76 -360 -17 -73 -33 -151 -36 -174 l-5 -41 61 -6 c91 -10 210
2 220 22 5 9 12 41 16 71 15 121 74 382 97 432 49 107 104 148 197 148 60 0
103 -31 122 -87 18 -55 10 -107 -57 -401 -13 -57 -24 -121 -24 -141 l0 -38 58
-6 c31 -4 90 -3 130 0 l72 6 10 37 c5 20 17 77 25 126 9 49 20 105 26 124 16
59 39 231 39 302 0 143 -44 227 -144 274 -70 33 -169 33 -249 0z"/>
<path d="M5058 943 c-21 -23 -88 -141 -88 -155 0 -23 53 6 102 55 29 30 66 63
82 75 16 12 27 24 25 26 -2 3 -27 8 -54 11 -42 6 -53 4 -67 -12z"/>
<path d="M4505 944 c-18 -4 -29 -45 -94 -352 -41 -191 -76 -362 -79 -380 l-4
-33 83 3 84 3 7 50 c11 71 53 269 105 498 25 109 42 201 39 205 -8 7 -114 12
-141 6z"/>
<path d="M2965 898 c-3 -13 -6 -39 -8 -58 l-2 -35 75 0 75 0 17 50 c9 28 17
53 17 58 1 4 -37 7 -84 7 -80 0 -85 -1 -90 -22z"/>
<path d="M1100 871 c-5 -11 -10 -38 -10 -60 0 -38 2 -41 28 -42 68 -2 117 -10
126 -19 10 -10 -24 -198 -75 -415 -40 -169 -45 -156 58 -153 l87 3 13 75 c14
76 86 410 101 465 8 30 9 30 96 35 94 5 101 10 112 67 12 65 21 63 -265 63
-247 0 -261 -1 -271 -19z"/>
<path d="M4119 850 c-36 -9 -71 -20 -77 -24 -6 -4 -19 -32 -29 -64 -9 -31 -19
-59 -20 -62 -2 -2 -25 -7 -51 -10 -46 -5 -47 -6 -50 -44 -4 -42 8 -56 44 -56
40 0 43 -19 23 -120 -21 -109 -24 -198 -8 -234 18 -38 73 -60 151 -61 75 0 92
10 103 62 6 31 5 33 -20 33 -14 0 -39 7 -55 15 -27 14 -30 20 -30 63 0 49 10
99 36 190 l15 52 58 0 c65 0 76 8 86 61 l7 36 -53 6 c-29 4 -57 11 -61 15 -6
6 -5 33 1 68 13 68 14 94 4 93 -5 -1 -38 -9 -74 -19z"/>
<path d="M1851 700 c-98 -21 -164 -84 -203 -195 -37 -107 -10 -232 63 -288 68
-51 195 -70 297 -46 60 15 70 24 78 78 6 40 5 44 -11 37 -45 -17 -165 -27
-204 -16 -47 12 -104 72 -99 103 3 22 7 22 195 25 l192 2 6 55 c14 110 -15
188 -84 229 -39 22 -158 31 -230 16z m156 -103 c20 -19 32 -81 21 -101 -7 -13
-27 -16 -113 -16 -57 0 -106 4 -110 9 -3 5 2 28 11 50 16 39 41 64 79 74 32 9
97 0 112 -16z"/>
<path d="M4870 699 c-44 -13 -60 -33 -60 -76 0 -30 2 -32 23 -24 40 15 131 21
172 11 47 -11 75 -41 75 -81 l0 -29 -77 -1 c-163 -1 -276 -37 -308 -99 -9 -17
-15 -56 -15 -91 0 -56 3 -64 33 -94 27 -27 44 -34 92 -40 68 -9 135 5 178 36
32 24 57 19 57 -11 0 -18 6 -20 64 -20 l65 0 6 58 c4 31 18 113 31 181 13 69
24 135 24 148 0 41 -28 81 -77 110 -43 25 -59 28 -148 30 -55 1 -116 -2 -135
-8z m181 -285 c12 -14 10 -23 -12 -62 -32 -57 -64 -82 -115 -89 -56 -7 -94 24
-94 77 0 34 4 42 30 55 67 35 169 45 191 19z"/>
<path d="M2515 691 l-179 -6 -8 -35 c-11 -54 -5 -60 60 -60 130 0 159 -22 96
-73 -109 -90 -234 -213 -243 -240 -6 -16 -11 -45 -11 -63 l0 -34 225 0 c208 0
225 1 225 18 0 9 3 34 6 54 l7 38 -112 0 c-86 0 -111 3 -111 13 0 19 59 79
168 172 100 85 118 109 128 174 6 36 4 41 -12 41 -11 0 -28 2 -39 3 -11 2
-101 1 -200 -2z"/>
<path d="M2933 692 c-11 -7 -48 -164 -73 -308 -5 -29 -16 -76 -24 -105 -9 -29
-16 -63 -16 -76 0 -22 3 -23 79 -23 l80 0 6 48 c3 26 19 103 35 172 52 220 62
271 56 285 -4 11 -22 15 -68 15 -35 0 -68 -4 -75 -8z"/>
<path d="M3247 685 c-10 -9 -17 -19 -17 -23 0 -4 -11 -68 -25 -142 -30 -161
-31 -221 -6 -276 17 -36 27 -45 78 -64 57 -21 60 -21 120 -5 34 9 76 28 94 41
43 31 57 30 61 -4 3 -26 6 -27 65 -30 74 -4 74 -3 97 118 9 47 28 135 42 195
14 61 29 128 34 150 5 21 7 41 4 44 -10 10 -111 12 -136 2 -24 -9 -29 -20 -48
-108 -46 -209 -66 -252 -132 -288 -35 -19 -38 -19 -73 -2 -20 10 -40 28 -46
44 -13 36 -4 122 28 246 13 54 23 100 21 102 -1 1 -35 6 -74 10 -59 6 -74 4
-87 -10z"/>
<path d="M5405 653 c-4 -27 -25 -124 -47 -218 -22 -93 -42 -189 -45 -213 l-6
-43 84 3 84 3 16 91 c31 180 59 250 112 283 58 36 126 22 147 -29 9 -22 6 -55
-19 -177 -17 -82 -31 -155 -31 -161 0 -8 25 -12 80 -12 l79 0 11 38 c19 66 50
263 49 310 -2 122 -47 172 -155 172 -74 0 -102 -9 -154 -51 -42 -34 -62 -31
-58 9 3 30 -18 39 -94 41 l-47 1 -6 -47z"/>
</g>
</svg>
